<svg width="143" height="64" viewBox="0 0 143 64" fill="none" xmlns="http://www.w3.org/2000/svg">
<path d="M49.2874 63.693C46.4897 63.693 44.2217 61.4147 44.2217 58.6044V14.7685C44.2217 12.6555 42.5164 10.9425 40.4129 10.9425H36.3818C30.4129 10.9425 25.5193 15.6971 25.3205 21.6897C25.0233 30.1082 24.3398 37.064 23.2699 42.557C22.2 48.05 20.6546 52.3787 18.6337 55.5431C16.6129 58.6478 14.057 60.8569 10.9663 62.1705C8.44853 63.2119 5.50025 63.8208 2.12144 63.9972C0.95111 64.0583 0 63.0969 0 61.9197V59.3742C0 56.0712 2.87729 53.6446 5.70602 51.9607C7.31084 51.0054 8.64819 49.2739 9.71807 46.7663C10.8474 44.2586 11.739 40.7061 12.3928 36.1087C13.0466 31.5113 13.4924 25.5706 13.7301 18.2864C14.0782 8.14577 22.3627 0.105847 32.4638 0.105847H51.3704C54.1681 0.105847 56.4361 2.38409 56.4361 5.19445V58.6044C56.4361 61.4147 54.1681 63.693 51.3704 63.693H49.2874Z" fill="white"/>
<path d="M77.9148 26.5259C75.8399 26.5259 73.9757 26.1839 72.3222 25.5C70.6688 24.7835 69.2585 23.8065 68.0913 22.569C66.9566 21.3314 66.0813 19.9147 65.4653 18.319C64.8493 16.7232 64.5413 15.046 64.5413 13.2874C64.5413 11.4962 64.8493 9.80268 65.4653 8.20689C66.0813 6.61111 66.9566 5.19444 68.0913 3.9569C69.2585 2.71935 70.6688 1.75862 72.3222 1.07471C73.9757 0.358238 75.8399 0 77.9148 0C79.9897 0 81.8377 0.358238 83.4587 1.07471C85.1122 1.75862 86.5225 2.71935 87.6896 3.9569C88.8567 5.19444 89.7321 6.61111 90.3157 8.20689C90.9317 9.80268 91.2396 11.4962 91.2396 13.2874C91.2396 15.046 90.9317 16.7232 90.3157 18.319C89.7321 19.9147 88.8567 21.3314 87.6896 22.569C86.5549 23.8065 85.1608 24.7835 83.5073 25.5C81.8539 26.1839 79.9897 26.5259 77.9148 26.5259ZM71.2523 13.2874C71.2523 14.7854 71.5441 16.1207 72.1277 17.2931C72.7113 18.4329 73.5056 19.3285 74.5106 19.9799C75.5157 20.6312 76.6504 20.9569 77.9148 20.9569C79.1468 20.9569 80.2653 20.6312 81.2703 19.9799C82.2754 19.296 83.0697 18.3841 83.6532 17.2442C84.2692 16.0718 84.5772 14.7366 84.5772 13.2385C84.5772 11.773 84.2692 10.454 83.6532 9.28161C83.0697 8.10919 82.2754 7.19732 81.2703 6.54598C80.2653 5.89463 79.1468 5.56896 77.9148 5.56896C76.6504 5.56896 75.5157 5.91092 74.5106 6.59483C73.5056 7.24617 72.7113 8.15804 72.1277 9.33046C71.5441 10.4703 71.2523 11.7893 71.2523 13.2874Z" fill="white"/>
<path d="M98.8963 26.0373C97.0968 26.0373 95.6381 24.572 95.6381 22.7644V5.52826C95.6381 2.7179 97.9061 0.439655 100.704 0.439655H109.668C111.239 0.439655 112.513 1.71912 112.513 3.29741C112.513 4.87571 111.239 6.15517 109.668 6.15517H103.168C102.608 6.15517 102.155 6.61082 102.155 7.17289V22.7644C102.155 24.572 100.696 26.0373 98.8963 26.0373Z" fill="white"/>
<path d="M128.018 26.5259C125.943 26.5259 124.079 26.1839 122.425 25.5C120.772 24.7835 119.362 23.8065 118.194 22.569C117.06 21.3314 116.184 19.9147 115.568 18.319C114.952 16.7232 114.644 15.046 114.644 13.2874C114.644 11.4962 114.952 9.80268 115.568 8.20689C116.184 6.61111 117.06 5.19444 118.194 3.9569C119.362 2.71935 120.772 1.75862 122.425 1.07471C124.079 0.358238 125.943 0 128.018 0C130.093 0 131.941 0.358238 133.562 1.07471C135.215 1.75862 136.626 2.71935 137.793 3.9569C138.96 5.19444 139.835 6.61111 140.419 8.20689C141.035 9.80268 141.343 11.4962 141.343 13.2874C141.343 15.046 141.035 16.7232 140.419 18.319C139.835 19.9147 138.96 21.3314 137.793 22.569C136.658 23.8065 135.264 24.7835 133.61 25.5C131.957 26.1839 130.093 26.5259 128.018 26.5259ZM121.355 13.2874C121.355 14.7854 121.647 16.1207 122.231 17.2931C122.814 18.4329 123.609 19.3285 124.614 19.9799C125.619 20.6312 126.753 20.9569 128.018 20.9569C129.25 20.9569 130.368 20.6312 131.373 19.9799C132.378 19.296 133.173 18.3841 133.756 17.2442C134.372 16.0718 134.68 14.7366 134.68 13.2385C134.68 11.773 134.372 10.454 133.756 9.28161C133.173 8.10919 132.378 7.19732 131.373 6.54598C130.368 5.89463 129.25 5.56896 128.018 5.56896C126.753 5.56896 125.619 5.91092 124.614 6.59483C123.609 7.24617 122.814 8.15804 122.231 9.33046C121.647 10.4703 121.355 11.7893 121.355 13.2874Z" fill="white"/>
<path d="M75.2887 63.693C73.4892 63.693 72.0304 62.2276 72.0304 60.42V44.8285C72.0304 44.2665 71.5768 43.8108 71.0173 43.8108H66.8026C65.2314 43.8108 63.9577 42.5314 63.9577 40.9531C63.9577 39.3748 65.2314 38.0953 66.8026 38.0953H83.8234C85.3946 38.0953 86.6683 39.3748 86.6683 40.9531C86.6683 42.5314 85.3946 43.8108 83.8234 43.8108H79.5601C79.0006 43.8108 78.547 44.2665 78.547 44.8285V60.42C78.547 62.2276 77.0882 63.693 75.2887 63.693Z" fill="white"/>
<path d="M94.3059 63.693C92.104 63.693 90.3191 61.9 90.3191 59.6882V41.4171C90.3191 39.6095 91.7778 38.1442 93.5773 38.1442C95.3768 38.1442 96.8356 39.6095 96.8356 41.4171V51.6469C96.8356 52.6486 98.1247 53.0477 98.6861 52.2198L107.109 39.799C107.831 38.7331 109.032 38.0953 110.316 38.0953C112.459 38.0953 114.197 39.8407 114.197 41.9937V60.42C114.197 62.2276 112.738 63.693 110.939 63.693C109.139 63.693 107.68 62.2276 107.68 60.42V50.5443C107.68 49.5459 106.398 49.1445 105.833 49.966L97.5866 61.9637C96.8423 63.0465 95.6159 63.693 94.3059 63.693Z" fill="white"/>
<path d="M123.402 63.693C121.602 63.693 120.143 62.2276 120.143 60.42V43.1839C120.143 40.3735 122.411 38.0953 125.209 38.0953H137.934C140.732 38.0953 143 40.3735 143 43.1839V60.42C143 62.2276 141.541 63.693 139.742 63.693C137.942 63.693 136.483 62.2276 136.483 60.42V44.8285C136.483 44.2665 136.03 43.8108 135.47 43.8108H127.673C127.114 43.8108 126.66 44.2665 126.66 44.8285V60.42C126.66 62.2276 125.201 63.693 123.402 63.693Z" fill="white"/>
</svg>
